<?xml version="1.0" encoding="UTF-8" standalone="no"?>
<svg
   xmlns:dc="http://purl.org/dc/elements/1.1/"
   xmlns:cc="http://creativecommons.org/ns#"
   xmlns:rdf="http://www.w3.org/1999/02/22-rdf-syntax-ns#"
   xmlns:svg="http://www.w3.org/2000/svg"
   xmlns="http://www.w3.org/2000/svg"
   xmlns:sodipodi="http://sodipodi.sourceforge.net/DTD/sodipodi-0.dtd"
   xmlns:inkscape="http://www.inkscape.org/namespaces/inkscape"
   width="200"
   height="200"
   viewBox="0 0 199.99999 199.99998"
   version="1.1"
   id="svg3"
   sodipodi:docname="heart_fill.svg"
   inkscape:version="0.92.5 (2060ec1f9f, 2020-04-08)">
  <metadata
     id="metadata9">
    <rdf:RDF>
      <cc:Work
         rdf:about="">
        <dc:format>image/svg+xml</dc:format>
        <dc:type
           rdf:resource="http://purl.org/dc/dcmitype/StillImage" />
        <dc:title></dc:title>
      </cc:Work>
    </rdf:RDF>
  </metadata>
  <defs
     id="defs7" />
  <sodipodi:namedview
     pagecolor="#ffffff"
     bordercolor="#666666"
     borderopacity="1"
     objecttolerance="10"
     gridtolerance="10"
     guidetolerance="10"
     inkscape:pageopacity="0"
     inkscape:pageshadow="2"
     inkscape:window-width="1366"
     inkscape:window-height="714"
     id="namedview5"
     showgrid="false"
     inkscape:zoom="0.95897615"
     inkscape:cx="-61.282965"
     inkscape:cy="-17.650313"
     inkscape:window-x="0"
     inkscape:window-y="29"
     inkscape:window-maximized="1"
     inkscape:current-layer="svg3"
     units="px"
     inkscape:pagecheckerboard="true" />
  <path
     id="heart_1_"
     data-name="heart (1)"
     d="M 184.13797,19.566367 A 53.770129,60.436841 0 0 0 144.14164,0.0029956 50.302143,56.538877 0 0 0 112.71711,12.19333 64.288592,72.259441 0 0 0 100.00662,27.104883 64.255876,72.222669 0 0 0 87.296126,12.19333 50.302143,56.538877 0 0 0 55.887959,0.0029956 53.786486,60.455228 0 0 0 15.875262,19.566367 62.505525,70.2553 0 0 0 0.00759446,67.555461 74.430813,83.65915 0 0 0 19.850358,122.31084 422.94696,475.38623 0 0 0 69.498165,174.67595 c 6.886895,6.58241 14.722579,14.06577 22.770921,22.06394 a 11.745346,13.201598 0 0 0 15.458714,0 c 8.09741,-7.9614 15.90038,-15.42637 22.78727,-22.06394 a 422.71794,475.12881 0 0 0 49.64781,-52.3835 74.430813,83.65915 0 0 0 19.82641,-54.755375 62.505525,70.2553 0 0 0 -15.86767,-47.989095 z m 0,0"
     style="fill:#ffffff;fill-opacity:1;stroke-width:17.34289932"
     inkscape:connector-curvature="0" />
</svg>
