<?xml version="1.0" encoding="UTF-8" standalone="no"?>
<!-- Created with Inkscape (http://www.inkscape.org/) -->

<svg
   xmlns:dc="http://purl.org/dc/elements/1.1/"
   xmlns:cc="http://creativecommons.org/ns#"
   xmlns:rdf="http://www.w3.org/1999/02/22-rdf-syntax-ns#"
   xmlns:svg="http://www.w3.org/2000/svg"
   xmlns="http://www.w3.org/2000/svg"
   xmlns:sodipodi="http://sodipodi.sourceforge.net/DTD/sodipodi-0.dtd"
   xmlns:inkscape="http://www.inkscape.org/namespaces/inkscape"
   version="1.1"
   id="svg2"
   width="348.32507"
   height="348.32507"
   viewBox="0 0 348.32507 348.32507"
   sodipodi:docname="logo.svg"
   inkscape:version="0.92.5 (2060ec1f9f, 2020-04-08)">
  <metadata
     id="metadata8">
    <rdf:RDF>
      <cc:Work
         rdf:about="">
        <dc:format>image/svg+xml</dc:format>
        <dc:type
           rdf:resource="http://purl.org/dc/dcmitype/StillImage" />
        <dc:title></dc:title>
      </cc:Work>
    </rdf:RDF>
  </metadata>
  <defs
     id="defs6" />
  <sodipodi:namedview
     pagecolor="#ffffff"
     bordercolor="#666666"
     borderopacity="1"
     objecttolerance="10"
     gridtolerance="10"
     guidetolerance="10"
     inkscape:pageopacity="0"
     inkscape:pageshadow="2"
     inkscape:window-width="1366"
     inkscape:window-height="714"
     id="namedview4"
     showgrid="false"
     inkscape:zoom="0.515625"
     inkscape:cx="322.1027"
     inkscape:cy="109.00239"
     inkscape:window-x="0"
     inkscape:window-y="29"
     inkscape:window-maximized="1"
     inkscape:current-layer="svg2"
     fit-margin-top="0"
     fit-margin-left="0"
     fit-margin-right="0"
     fit-margin-bottom="0" />
  <circle
     style="opacity:1;fill:#ffffff;fill-opacity:1;stroke:none;stroke-width:1.88976383;stroke-linecap:round;stroke-linejoin:round;stroke-miterlimit:0;stroke-dasharray:none;stroke-opacity:1;paint-order:stroke fill markers"
     id="path905"
     cx="174.16254"
     cy="174.16254"
     r="174.16254"
     inkscape:export-filename="/home/pendaurulang/Programs/Project/flutter/rental_girlfriend/assets/icons/logo.png"
     inkscape:export-xdpi="96"
     inkscape:export-ydpi="96" />
  <g
     id="g974"
     transform="matrix(0.48581587,0,0,0.48581587,47.580924,66.783125)">
    <path
       id="path887"
       d="m 222.39962,310.33467 c -0.46111,-5.7976 -0.16311,-6.51745 2.69798,-6.51745 5.61418,0 19.97125,-21.0653 22.00727,-32.28999 0.98396,-5.42465 -1.31175,-7.71001 -7.74496,-7.71001 -4.51012,0 -8.97698,1.66622 -14.00656,5.22469 -1.41447,1.00076 -2.32837,0.69629 -5.41942,-1.80551 -5.96855,-4.83074 -6.38106,-6.13139 -2.87919,-9.07798 1.65,-1.38837 5.82269,-3.88029 9.27265,-5.53761 5.66221,-2.72005 7.04113,-2.9784 14.16919,-2.6547 6.8473,0.31095 8.4656,0.75856 12.17938,3.3687 6.26875,4.40584 8.31088,8.49695 8.2004,16.4283 -0.1061,7.61682 -2.53792,14.7492 -8.23076,24.1403 l -3.88801,6.41381 3.13984,0.33135 c 3.79601,0.4006 4.622,1.53466 4.642,6.37334 0.0176,4.26084 1.19747,3.84718 -17.98469,6.30542 -16.59656,2.12689 -15.73526,2.28644 -16.15512,-2.99266 z"
       style="fill:#e8316e;fill-opacity:0.94509804"
       inkscape:connector-curvature="0" />
    <path
       id="path883"
       d="m 449.46025,315.06134 -6.15429,0.66016 c -3.3856,0.36317 -6.52852,0.9994 -6.98242,1.41406 -0.4537,0.41466 -0.44563,6.46418 0.0176,13.44532 0.4632,6.98114 0.60305,13.08139 0.31055,13.55468 -0.7038,1.13865 -11.88788,1.89604 -44.26758,2.9961 -14.7214,0.50015 -27.0964,1.11227 -27.5,1.36133 -0.4037,0.24905 -0.50937,3.5334 -0.23437,7.29882 0.4789,6.55702 0.6056,6.83991 3,6.6875 5.6008,-0.35649 55.9974,-1.84179 62.5,-1.84179 h 7 v 4.5 c 0,3.51607 -0.328,4.41111 -1.5,4.08984 -0.825,-0.22614 -4.425,-0.59638 -8,-0.82227 -5.8648,-0.37059 -6.95012,-0.12092 -11.10352,2.54688 -5.1295,3.29481 -9.90062,11.31807 -9.89062,16.63281 0.01,5.3384 2.02286,10.57908 5.57226,14.50781 3.6269,4.01463 6.50438,5.49435 12.67188,6.51563 2.0625,0.34153 3.75,0.99854 3.75,1.46094 0,2.21956 -8.75834,13.5358 -15.24414,19.69531 -8.7282,8.28912 -18.38268,14.84674 -30.20508,20.51953 -8.0193,3.84793 -8.61892,4.3309 -6.91602,5.57617 1.114,0.81456 1.74265,2.30206 1.56055,3.69336 -0.1878,1.43548 0.31746,2.56711 1.31836,2.95117 1.0933,0.41955 1.41678,1.27892 0.98828,2.62891 -1.0091,3.17947 1.79413,2.52604 12.95313,-3.01953 25.9942,-12.91809 47.05235,-35.63728 52.84765,-57.01758 2.4425,-9.01113 5.76621,-27.90133 6.50391,-36.95898 l 0.69336,-8.5 13,-0.5 13,-0.5 0.29687,-7.40235 0.29688,-7.40234 -12.98633,0.57617 c -9.3551,0.41606 -13.25129,0.25034 -13.92969,-0.5957 -0.518,-0.64599 -1.23515,-5.67578 -1.59375,-11.17578 -0.3587,-5.5 -0.90469,-11.70514 -1.21289,-13.78907 z m -21.17578,67.10352 c 1.15759,0.0174 2.23881,0.25349 2.96485,0.73828 3.8522,2.57216 3.57247,9.00162 -0.48633,11.17383 -2.4985,1.33715 -3.04598,1.31719 -6.11328,-0.22656 -3.1212,-1.57089 -4.00272,-7.56757 -1.48242,-10.08789 1.048,-1.04802 3.18788,-1.62674 5.11718,-1.59766 z"
       style="fill:#e7316e;fill-opacity:1"
       inkscape:connector-curvature="0" />
    <path
       id="path869"
       d="m 206.55474,305.50689 c 0,-0.72067 -0.8947,-8.48317 -1.98822,-17.25 -1.09352,-8.76682 -1.99352,-16.48178 -2,-17.14436 -0.006,-0.66257 1.67572,-1.46891 3.73822,-1.79186 2.0625,-0.32295 5.00463,-0.78552 6.53806,-1.02793 3.10432,-0.49074 3.25873,-0.23766 4.21983,6.91628 l 0.65718,4.8918 9.41747,-0.66199 9.41746,-0.66198 v 4.52019 c 0,2.4861 0.1125,4.85768 0.25,5.27018 0.1375,0.4125 -2.675,1.1174 -6.25,1.56644 -12.23038,1.53621 -11.34392,0.81586 -10.57735,8.59534 l 0.67117,6.81131 -3.79691,0.62745 c -6.26002,1.03448 -10.29691,0.77539 -10.29691,-0.66087 z"
       style="fill:#e8316e;fill-opacity:0.94509804"
       inkscape:connector-curvature="0" />
    <path
       id="path865"
       d="m 166.63309,290.56722 c -0.65376,-6.1875 -1.59263,-15.075 -2.08636,-19.75 -0.49373,-4.675 -1.45819,-14.47024 -2.14323,-21.76721 -0.68504,-7.29696 -1.53349,-13.14696 -1.88544,-13 -0.35195,0.14697 -3.75018,3.85202 -7.55162,8.23346 -5.86719,6.76238 -6.95999,7.63133 -7.23125,5.75 -0.22966,-1.59277 -1.00329,-2.21625 -2.75,-2.21625 -1.76378,0 -2.43045,-0.5486 -2.43045,-2 0,-1.33333 -0.66667,-2 -2,-2 -1.1,0 -2,-0.39143 -2,-0.86984 0,-1.46566 58.89781,-70.60912 60.42826,-70.94014 1.52048,-0.32887 9.57174,6.38807 9.57174,7.98542 0,0.83828 -9.58544,12.49859 -27.31409,33.2265 -5.87559,6.8696 -5.90019,6.92512 -5.2474,11.84603 0.36072,2.71925 1.0709,9.51337 1.57818,15.09806 0.50729,5.58468 1.38721,14.87897 1.95539,20.65397 0.56818,5.775 1.49777,15.45 2.06575,21.5 0.56798,6.05 1.28884,12.62185 1.60191,14.6041 0.54056,3.42266 0.40663,3.63663 -2.66026,4.25 -1.77621,0.35525 -4.91315,0.6459 -6.97097,0.6459 h -3.7415 z"
       style="fill:#e8316e;fill-opacity:0.94509804"
       inkscape:connector-curvature="0" />
    <path
       id="path857"
       d="m 306.38018,315.13752 0.72265,13.64843 0.72266,13.64844 -29.33789,-0.39844 -29.33789,-0.39843 -0.29492,6.75 -0.29688,6.75 17.79688,0.13671 c 9.78763,0.0746 23.19492,0.41207 29.79492,0.75 l 12,0.61329 v 6.48242 6.48242 l -14,1.35352 c -7.7,0.74488 -14.2975,1.65447 -14.66211,2.01953 -0.36461,0.36506 -0.36461,3.36211 0,6.66211 l 0.66211,6 3.5,-0.0762 c 1.925,-0.0425 8.49222,-0.43998 14.59375,-0.88281 l 11.09375,-0.80469 0.65625,6.2793 c 0.361,3.45352 0.65625,7.79623 0.65625,9.65235 0,3.83045 -0.97074,4.43232 -10.17578,6.29492 -10.78778,2.18288 -17.82422,10.26168 -17.82422,20.46679 0,8.46428 5.79997,15.58168 14.35742,17.61524 10.2287,2.43072 22.53811,-5.89025 25.82031,-17.45508 0.6382,-2.24875 1.50564,-4.48729 1.92774,-4.97461 0.4368,-0.50428 2.92077,-0.18114 5.76757,0.75 6.3078,2.06315 6.46864,2.05221 5.83594,-0.36719 -0.3165,-1.21036 0.0922,-2.34644 1.03321,-2.87304 0.95419,-0.53392 1.35043,-1.66171 1.02343,-2.91211 -0.3885,-1.48578 0.0476,-2.20368 1.60157,-2.64258 2.03969,-0.57611 2.05169,-0.66409 0.30859,-2 -1.0029,-0.76865 -4.50992,-2.20351 -7.79492,-3.1875 -3.2849,-0.98399 -6.43129,-2.34171 -6.99219,-3.01758 -0.5609,-0.67586 -1.28091,-6.17112 -1.59961,-12.21289 l -0.58008,-10.98633 4.64649,-0.58203 c 2.555,-0.32069 6.71017,-0.84211 9.23437,-1.1582 l 4.58985,-0.57422 -0.69141,-6.17578 c -0.3799,-3.39641 -0.98304,-6.45562 -1.33985,-6.79883 -0.35679,-0.3432 -3.98595,-0.24989 -8.06445,0.20703 -4.0785,0.45693 -7.791,0.59813 -8.25,0.31445 -0.459,-0.28367 -0.83398,-2.73949 -0.83398,-5.45703 v -4.9414 h 15 15 v -7 -7 l -14.25,-0.0137 c -7.8375,-0.008 -14.84261,-0.39254 -15.56641,-0.85156 -0.9262,-0.58728 -1.48889,-4.73096 -1.90039,-13.98437 l -0.58594,-13.15039 h -6.98242 z m 2.06445,103.24804 c 2.13257,0.11744 2.50607,1.61231 1.26953,4.59766 -0.6736,1.62627 -2.20123,3.8503 -3.39453,4.94141 -4.62786,4.23164 -9.66992,3.35451 -9.66992,-1.68164 0,-3.46844 2.24198,-5.53545 7.78125,-7.17383 1.71034,-0.50589 3.04432,-0.73698 4.01367,-0.6836 z"
       style="fill:#f6ab00;fill-opacity:1"
       inkscape:connector-curvature="0" />
    <path
       id="path847"
       d="m 53.662109,168.35742 c -1.263183,-0.0107 -2.151172,0.0403 -2.357421,0.15625 -0.412501,0.23181 -0.75,5.73151 -0.75,12.22071 v 11.79882 l -6.146485,0.64063 c -3.38068,0.35335 -11.93068,0.64258 -19,0.64258 H 12.554688 v 7.03515 7.03516 l 18.25,-0.28516 18.25,-0.28515 0.285156,9.68554 0.285156,9.68555 -6.923828,4.04297 c -12.72298,7.43062 -20.032922,18.53178 -18.888672,28.68359 0.59293,5.26047 2.473201,8.33225 7.394531,12.08594 3.11544,2.37625 4.641861,2.81745 9.769531,2.81445 7.91893,-0.005 14.371182,-3.5802 18.175782,-10.07226 2.5743,-4.39271 2.940822,-6.63924 4.351562,-26.64649 0.13511,-1.91618 11.676215,-3.99264 19.953125,-3.58984 20.638569,1.00438 30.755959,12.92623 22.082029,26.02148 -1.65892,2.50451 -4.58182,5.61959 -6.494138,6.92188 -4.00721,2.72889 -4.265535,3.48635 -1.490234,4.36719 1.1,0.34913 2,1.50542 2,2.56836 -10e-7,1.06293 0.675002,1.93164 1.500002,1.93164 0.83333,0 1.5,0.88889 1.5,2 0,3.62017 3.26688,2.15148 9.56054,-4.29883 10.70369,-10.9701 13.23112,-22.7926 7.37891,-34.50391 -3.43351,-6.87106 -8.02307,-11.01715 -16.20312,-14.63476 -10.260674,-4.53775 -17.368333,-5.1758 -36.736332,-3.30274 -2.451601,0.23709 -2.5,0.10471 -2.5,-6.75976 v -7 l 9.5,-0.5 9.5,-0.5 0.294921,-6.71094 0.294922,-6.71289 -9.294922,-0.28711 -9.294921,-0.28906 -0.28125,-11.63086 -0.279297,-11.63282 -6.220703,-0.48046 c -1.710305,-0.13215 -3.348145,-0.20416 -4.611329,-0.21485 z m -4.634765,74.7461 c 0.09044,-0.007 0.158063,0.0116 0.201172,0.0547 0.18168,0.18168 0.03051,3.19709 -0.335938,6.70313 -0.49351,4.72169 -1.260711,6.96969 -2.957031,8.66601 -2.18308,2.18308 -6.290874,3.04703 -7.714844,1.62305 -1.30586,-1.30585 -0.622391,-5.87987 1.318359,-8.82422 1.76821,-2.6826 8.131625,-8.12166 9.488282,-8.22265 z"
       style="fill:#f6ab00;fill-opacity:1"
       inkscape:connector-curvature="0" />
    <path
       id="path843"
       d="m 398.22707,276.38459 c -15.93058,-4.28201 -21.83162,-18.02689 -19.67042,-45.81691 0.52399,-6.73775 0.96292,-13.26296 0.9754,-14.50046 0.0214,-2.12081 0.43204,-2.25 7.15186,-2.25 h 7.12916 l -0.59069,5.75 c -3.12788,30.44809 -1.20567,40.51048 8.28169,43.35296 3.76035,1.12663 7.71796,0.29625 17.46141,-3.66373 1.609,-0.65394 1.82064,-0.43203 1.3402,1.40519 -0.39436,1.50801 0.008,2.49124 1.30202,3.18392 1.16746,0.62481 1.64014,1.60786 1.25531,2.6107 -0.36837,0.95996 0.0499,1.98187 1.03724,2.53444 0.90997,0.50925 1.65449,1.30128 1.65449,1.76007 0,1.21805 -9.64317,4.8977 -15.88649,6.06197 -6.29574,1.17404 -5.34864,1.20948 -11.44118,-0.42815 z"
       style="fill:#e7316e;fill-opacity:0.99607843"
       inkscape:connector-curvature="0" />
    <path
       id="path841"
       d="m 311.55474,266.37376 c 0,-1.65151 -0.55326,-2.55654 -1.56286,-2.55654 -0.99032,0 -1.44824,-0.71525 -1.25,-1.95243 0.17207,-1.07383 -0.51681,-2.56113 -1.53084,-3.3051 -1.71977,-1.26174 -1.559,-1.54109 2.39139,-4.15533 6.81132,-4.50752 19.32325,-17.50077 24.32749,-25.26332 7.52072,-11.66614 13.42539,-28.54643 11.95383,-34.17368 -0.72219,-2.76168 -3.58997,-2.77001 -8.03418,-0.0233 -1.92093,1.1872 -3.79612,1.73944 -4.24453,1.25 -0.93149,-1.01676 -6.0503,-10.2319 -6.0503,-10.89209 0,-0.24436 2.3625,-1.79917 5.25,-3.45514 10.05865,-5.76857 19.77497,-3.41272 24.5,5.94035 2.82635,5.59468 2.87496,11.31308 0.17896,21.05014 -3.83345,13.84518 -10.98952,27.18948 -20.86047,38.89961 -4.9582,5.88203 -16.97383,16.49003 -21.95935,19.38683 l -3.10914,1.80653 z"
       style="fill:#f6ab00;fill-opacity:1"
       inkscape:connector-curvature="0" />
    <path
       id="path839"
       d="m 258.69141,172.81641 c -1.42324,0 -2.17003,0.9112 -2.66602,3.25 -1.3321,6.28137 -6.67172,22.26277 -7.81445,23.38867 -0.65595,0.64628 -6.60961,1.43391 -13.77149,1.82031 -14.23374,0.76795 -13.83939,0.98554 -13.87109,-7.70898 l -0.0137,-3.75 -4.75,0.0137 c -8.85973,0.0255 -9.44382,0.46837 -9.07422,6.87304 0.30858,5.34718 0.20539,5.6279 -2.17578,5.89454 -7.42093,0.83101 -8.03373,1.8001 -6.375,10.09375 0.58415,2.92076 0.9075,3.125 4.9414,3.125 2.37379,0 4.61495,0.48475 4.98047,1.07617 0.89951,1.45543 2.17068,16.7626 1.48438,17.87304 -0.30083,0.48678 -5.38077,1.2097 -11.28906,1.60547 l -10.74219,0.71875 v 6.5 6.50196 l 9.25,-0.65235 c 11.43058,-0.80544 34.90897,-2.18181 61.25,-3.59179 11,-0.58881 21.4625,-1.30701 23.25,-1.59571 3.25643,-0.52593 4.16544,-1.75086 2.20117,-2.96484 -0.7168,-0.44301 -0.67746,-1.09403 0.12305,-2.05859 0.87791,-1.05782 0.8857,-1.75562 0.0312,-2.78516 -0.62683,-0.75529 -0.85897,-2.10529 -0.51563,-3 0.53673,-1.3987 -0.26659,-1.62181 -5.73242,-1.59961 -3.49635,0.0142 -10.79865,0.45652 -16.22656,0.98437 -5.4279,0.52788 -10.23087,0.73666 -10.67383,0.4629 -0.44295,-0.27376 1.2493,-4.96391 3.76172,-10.42188 l 4.56836,-9.92383 6.43554,-0.68945 c 3.53958,-0.37905 6.61739,-1.1957 6.83789,-1.81445 0.2205,-0.61876 0.0611,-3.375 -0.35351,-6.125 -0.72571,-4.81398 -0.87401,-4.99924 -3.98047,-4.99024 -2.05898,0.006 -3.22656,-0.48145 -3.22656,-1.34961 0,-0.74824 1.37736,-6.08912 3.06054,-11.86718 1.68319,-5.77806 2.92069,-10.61659 2.75,-10.75196 -0.69546,-0.55159 -9.8354,-2.54101 -11.67382,-2.54101 z m -19.67188,41.17773 c 1.87439,-0.002 3.13604,0.0967 3.33008,0.29297 0.38807,0.39254 -1.57727,5.0589 -4.36719,10.37109 -5.05874,9.6322 -5.08302,9.66067 -9.1582,9.96289 -4.67758,0.34689 -4.65052,0.40695 -5.8086,-12.45312 l -0.64453,-7.15039 9.63672,-0.72266 c 2.64986,-0.19881 5.13734,-0.29916 7.01172,-0.30078 z"
       style="fill:#e8316e;fill-opacity:0.94509804"
       inkscape:connector-curvature="0" />
    <path
       id="path835"
       d="m 306.66595,225.06722 c -1.55113,-7.67505 -3.06694,-18.97506 -3.0914,-23.04569 l -0.0198,-3.29569 6.75,0.29569 6.75,0.29569 0.62825,9 c 0.34554,4.95 1.10504,11.00078 1.68778,13.44617 0.58274,2.44539 0.85421,4.77838 0.60327,5.18441 -0.38002,0.61488 -10.2095,3.86942 -11.68656,3.86942 -0.2527,0 -0.98239,-2.5875 -1.62153,-5.75 z"
       style="fill:#f6ab00;fill-opacity:1"
       inkscape:connector-curvature="0" />
    <path
       id="path833"
       d="m 118.30303,205.57576 c -1.30158,-1.7922 -4.29208,-5.87927 -6.64556,-9.08239 -3.9832,-5.42122 -4.16756,-5.94704 -2.66654,-7.60564 1.84401,-2.0376 8.30616,-5.71187 8.84069,-5.02665 3.01688,3.86732 11.72312,17.14303 11.72312,17.87598 0,0.54125 -1.99917,2.35954 -4.44259,4.04066 l -4.44259,3.05659 z"
       style="fill:#f6ab00;fill-opacity:1"
       inkscape:connector-curvature="0" />
    <path
       id="path831"
       d="m 419.57467,161.85446 c -0.61403,-1.14732 -1.66378,-1.7274 -2.52675,-1.39625 -0.84496,0.32424 -1.74798,-0.14141 -2.11154,-1.08884 -0.47475,-1.23718 -1.36107,-1.49594 -3.50843,-1.0243 -1.73257,0.38053 -2.87321,0.21658 -2.87321,-0.41298 0,-0.57422 2.26411,-5.64866 5.03137,-11.27652 2.76725,-5.62787 4.84284,-10.70631 4.61243,-11.28542 -0.23042,-0.57911 -3.05704,-2.06392 -6.28137,-3.29957 -11.09958,-4.25367 -21.36511,-14.65383 -24.38017,-24.69993 -1.32392,-4.41127 -1.64212,-19.272642 -0.52185,-24.373172 l 0.6985,-3.18026 h -18.5604 -18.56041 l -0.58134,-2.31627 c -0.31974,-1.27395 -0.44082,-4.53645 -0.26905,-7.25 l 0.31229,-4.93373 20.75084,-0.53655 c 16.45224,-0.42541 21.02067,-0.83971 22.05341,-2 0.71642,-0.8049 3.26779,-5.96345 5.66973,-11.46345 6.51761,-14.92416 27.58373,-58.1086104 28.67555,-58.7834004 1.2011,-0.74232 12.0855,4.12499 12.63184,5.64873 0.22375,0.62407 -3.788,9.68467 -8.915,20.1346704 -10.40738,21.21261 -20.36637,42.92026 -20.36637,44.39268 0,0.616 16.16356,0.75296 44.59276,0.37785 37.72813,-0.49782 44.73003,-0.3715 45.48473,0.82054 1.3495,2.13181 1.1075,11.51206 -0.3275,12.6911 -0.7828,0.64318 -19.0026,1.34302 -48.7472,1.87244 l -47.49722,0.84539 -1.33043,4 c -0.73174,2.2 -1.35819,7.03379 -1.39211,10.74176 -0.0788,8.618582 2.89098,14.789452 9.53611,19.814652 4.24483,3.21004 14.27249,7.72825 15.11745,6.81154 0.18653,-0.20237 4.66686,-9.03045 9.95628,-19.61795 5.28943,-10.587502 10.05492,-19.250002 10.58998,-19.250002 2.16725,0 12.01715,5.50712 12.01715,6.71884 0,0.71622 -4.04166,9.37607 -8.98146,19.244122 -6.50354,12.99187 -8.64171,18.15248 -7.75,18.70512 0.6773,0.41976 5.95646,2.17093 11.73146,3.8915 10.48046,3.12247 10.49956,3.13395 10.26174,6.16974 -0.13105,1.67279 -0.82032,4.78052 -1.53173,6.90606 -1.55629,4.64986 -2.85839,4.73205 -15.135,0.95535 -14.82355,-4.56024 -12.69392,-5.42302 -19.2818,7.81168 -3.17513,6.37867 -6.10369,11.59759 -6.5079,11.59759 -0.40422,0 -1.20764,-0.88324 -1.78538,-1.96276 z"
       style="fill:#f6ab00;fill-opacity:1"
       inkscape:connector-curvature="0" />
    <path
       id="path829"
       d="m 184.22141,156.15055 c -0.36667,-0.36666 -0.66667,-18.47394 -0.66667,-40.23838 V 76.340448 l -7.58067,8.23838 c -5.11577,5.55963 -8.30134,8.23839 -9.79705,8.23839 -2.32726,0 -9.62228,-6.67824 -9.62228,-8.80873 0,-0.67342 14.24553,-16.29194 31.65674,-34.70783 22.39567,-23.68797 32.28288,-33.48344 33.79705,-33.48344 2.1384,0 9.54621,6.67636 9.54621,8.6036 0,1.20266 -0.37879,1.63075 -18.04755,20.3964 -7.50885,7.975 -14.10798,15.4 -14.66475,16.5 -0.67147,1.32662 -0.7639,17.31703 -0.27453,47.492722 0.40578,25.021 0.52067,46.0585 0.25531,46.75 -0.51128,1.33239 -13.3411,1.85132 -14.60181,0.59061 z"
       style="fill:#e7316e;fill-opacity:1"
       inkscape:connector-curvature="0" />
    <path
       id="path827"
       d="m 264.30474,149.20545 c -2.6125,-1.96892 -4.75,-4.21238 -4.75,-4.98548 0,-0.77309 3.6,-5.95942 8,-11.52518 4.4,-5.56576 7.9903,-10.62761 7.97843,-11.24856 -0.0119,-0.62096 -2.52683,-2.92417 -5.58883,-5.11824 -3.062,-2.19408 -5.80167,-4.3685 -6.08816,-4.83204 -0.80079,-1.29572 6.7379,-11.678732 8.47947,-11.678732 0.84554,0 3.92144,1.800002 6.83531,4.000002 2.91388,2.2 5.87977,3.99913 6.59087,3.99807 1.96742,-0.003 7.78234,-9.158072 8.45685,-13.314632 0.571,-3.51861 0.43081,-3.7459 -3.26202,-5.28887 -3.28196,-1.37129 -4.88819,-1.44222 -10.74734,-0.4746 -3.78878,0.6257 -9.52182,2.02468 -12.74009,3.10884 -3.21827,1.08415 -6.09627,1.97119 -6.39555,1.97119 -0.75508,0 -5.51894,-10.9279 -5.51894,-12.65997 0,-3.25548 17.74098,-8.34295 29.06389,-8.33445 10.22513,0.008 14.65514,1.4503 19.58158,6.37673 4.79092,4.79092 6.82935,10.72378 5.83416,16.98031 -0.80009,5.029962 -4.33138,12.922552 -7.86637,17.581662 -1.43729,1.89435 -2.61326,3.75544 -2.61326,4.13575 0,0.38031 6.075,5.09407 13.5,10.47501 7.425,5.38095 13.5,10.15736 13.5,10.61425 0,0.45689 -1.30787,0.83071 -2.90638,0.83071 -2.34241,0 -2.81188,0.36137 -2.41938,1.86229 0.34168,1.30657 -0.1708,2.0343 -1.7174,2.43875 -1.82421,0.47704 -2.0879,1.04064 -1.5289,3.26787 0.57447,2.28889 0.39712,2.61861 -1.18587,2.20464 -1.02375,-0.26771 -7.63129,-4.68195 -14.68342,-9.80941 l -12.82206,-9.32266 -2.11829,2.91377 c -5.68365,7.81798 -15.36706,18.96073 -16.66248,19.1736 -0.8007,0.13158 -3.59332,-1.3717 -6.20582,-3.34062 z"
       style="fill:#e7316e;fill-opacity:1"
       inkscape:connector-curvature="0" />
    <path
       id="path825"
       d="m 490.67303,140.27937 c -5.0151,-5.24581 -9.1183,-9.87948 -9.1183,-10.29705 0,-0.41756 1.8428,-2.53803 4.0951,-4.71215 l 4.0952,-3.95295 9.4048,9.90907 c 5.1727,5.44999 9.4049,10.28749 9.4049,10.75 0,0.46251 -0.675,0.84093 -1.5,0.84093 -0.8333,0 -1.5,0.88889 -1.5,2 0,1.33333 -0.6667,2 -2,2 -1.1111,0 -2,0.66667 -2,1.5 0,2.80525 -1.755,1.50894 -10.8817,-8.03785 z"
       style="fill:#f6ab00;fill-opacity:1"
       inkscape:connector-curvature="0" />
    <path
       id="path823"
       d="m 222.16809,139.76295 c -2.68766,-0.45046 -5.29852,-1.2309 -5.80191,-1.73429 -0.55368,-0.55368 0.0786,-6.60331 1.60051,-15.31335 1.38367,-7.91895 4.34108,-25.198092 6.57203,-38.398092 2.23094,-13.2 4.53843,-26.40741 5.12776,-29.34981 l 1.07149,-5.3498 4.65839,0.67157 c 8.63963,1.24552 9.15838,1.50708 9.15838,4.61783 0,1.58013 -1.60172,12.21885 -3.55938,23.64159 -1.95766,11.42274 -5.07213,29.641602 -6.92104,40.486362 -1.84892,10.84475 -3.64876,20.18225 -3.99964,20.75 -0.70743,1.14464 -0.94997,1.14396 -7.90659,-0.022 z"
       style="fill:#e7316e;fill-opacity:1"
       inkscape:connector-curvature="0" />
    <path
       id="path821"
       d="m 282.55474,69.917028 -4.5,-0.59981 0.22433,-19.25 c 0.12338,-10.5875 0.0885,-19.25 -0.0776,-19.25 -0.99945,0 -14.24593,5.78173 -20.82396,9.0891 -4.27811,2.151 -8.35824,3.9109 -9.06695,3.9109 -2.10378,0 -8.12394,-10.85153 -6.86303,-12.37083 1.44862,-1.74548 15.68993,-8.81962 27.16102,-13.49179 l 9.44618,-3.84742 0.76517,-13.39498042 c 0.42084,-7.36723998 0.96922,-13.95747958 1.21861,-14.64497958 0.6204,-1.71023 13.10518,-1.71023 14.194,0 0.4377,0.6875 0.64936,6.3093596 0.47037,12.4930196 l -0.32545,11.24302 4.83865,-0.74302 c 2.66126,-0.40866 10.46365,-0.70184 17.33865,-0.65151 10.50304,0.0769 13.44557,0.45791 18.41881,2.3850104 7.36284,2.85305 13.94835,8.79955 16.16075,14.59262 2.40191,6.28932 1.57403,17.23134 -1.8735,24.76172 -3.49797,7.64059 -8.64786,14.66914 -10.74822,14.66914 -1.52388,0 -9.95784,-8.08378 -9.95784,-9.54438 0,-0.32399 1.10236,-2.03434 2.4497,-3.80078 5.67836,-7.44472 8.06231,-16.96111 5.46478,-21.81464 -2.8796,-5.38058 -19.56523,-8.16122 -33.91448,-5.65181 l -7.5,1.31161 -0.67588,4.5 c -0.37173,2.475 -0.70923,11.84208 -0.75,20.81574 -0.0417,9.18003 -0.52686,17.16169 -1.1093,18.25 -1.06649,1.99274 -2.02567,2.09228 -9.96482,1.03407 z"
       style="fill:#e7316e;fill-opacity:1"
       inkscape:connector-curvature="0" />
    <path
       id="path817"
       d="m 157.69245,41.457528 c -3.17532,-3.23541 -4.12041,-4.84706 -3.49497,-5.95993 0.82104,-1.46091 3.42113,-4.29967 20.31559,-22.18038 23.14129,-24.49223 34.5787,-36.82821 34.875,-37.61495 1.1102,-2.94774 12.16667,4.3323 12.16667,8.01104 0,2.09132 -55.4813,61.5027 -57.79723,61.89136 -0.96566,0.16206 -3.61139,-1.64703 -6.06506,-4.14714 z"
       style="fill:#e7316e;fill-opacity:1"
       inkscape:connector-curvature="0" />
  </g>
</svg>
