<?xml version="1.0" encoding="UTF-8" standalone="no"?>
<!-- Created with Inkscape (http://www.inkscape.org/) -->

<svg
   xmlns:dc="http://purl.org/dc/elements/1.1/"
   xmlns:cc="http://creativecommons.org/ns#"
   xmlns:rdf="http://www.w3.org/1999/02/22-rdf-syntax-ns#"
   xmlns:svg="http://www.w3.org/2000/svg"
   xmlns="http://www.w3.org/2000/svg"
   xmlns:sodipodi="http://sodipodi.sourceforge.net/DTD/sodipodi-0.dtd"
   xmlns:inkscape="http://www.inkscape.org/namespaces/inkscape"
   width="200"
   height="200"
   viewBox="0 0 52.916667 52.916668"
   version="1.1"
   id="svg1116"
   inkscape:version="0.92.5 (2060ec1f9f, 2020-04-08)"
   sodipodi:docname="star.svg">
  <defs
     id="defs1110" />
  <sodipodi:namedview
     id="base"
     pagecolor="#ffffff"
     bordercolor="#666666"
     borderopacity="1.0"
     inkscape:pageopacity="0.0"
     inkscape:pageshadow="2"
     inkscape:zoom="0.49497475"
     inkscape:cx="6.8160861"
     inkscape:cy="-88.16345"
     inkscape:document-units="px"
     inkscape:current-layer="layer1"
     showgrid="false"
     inkscape:pagecheckerboard="true"
     fit-margin-top="0"
     fit-margin-left="0"
     fit-margin-right="0"
     fit-margin-bottom="0"
     inkscape:window-width="1366"
     inkscape:window-height="714"
     inkscape:window-x="0"
     inkscape:window-y="29"
     inkscape:window-maximized="1"
     units="px" />
  <metadata
     id="metadata1113">
    <rdf:RDF>
      <cc:Work
         rdf:about="">
        <dc:format>image/svg+xml</dc:format>
        <dc:type
           rdf:resource="http://purl.org/dc/dcmitype/StillImage" />
        <dc:title></dc:title>
      </cc:Work>
    </rdf:RDF>
  </metadata>
  <g
     inkscape:label="Layer 1"
     inkscape:groupmode="layer"
     id="layer1"
     transform="translate(-70.020089,-64.712236)">
    <path
       inkscape:connector-curvature="0"
       style="color:#f2f2f2;display:inline;fill:#ffffff;fill-opacity:1;stroke:none;stroke-width:3.30729294"
       d="m 122.93676,85.218411 c 0,-0.822625 -0.59327,-1.333754 -1.78143,-1.533905 l -15.96337,-2.433874 -7.155138,-15.17145 c -0.402401,-0.911442 -0.922336,-1.366946 -1.558209,-1.366946 -0.635839,0 -1.15536,0.455521 -1.558183,1.366946 l -7.155519,15.17145 -15.964136,2.433874 c -1.187009,0.2 -1.780688,0.71128 -1.780688,1.533905 0,0.466961 0.26488,1.000656 0.795121,1.600649 l 11.575655,11.803592 -2.734672,16.671798 c -0.04241,0.31151 -0.064,0.53408 -0.064,0.66712 0,0.46696 0.11136,0.86108 0.33376,1.18398 0.22224,0.32247 0.55624,0.48335 1.001584,0.48335 0.381761,0 0.805649,-0.13272 1.272072,-0.39984 l 14.27828,-7.86971 14.279443,7.86971 c 0.44576,0.26688 0.86967,0.39984 1.27167,0.39984 0.42512,0 0.74793,-0.16039 0.97041,-0.48335 0.22192,-0.32249 0.33336,-0.71704 0.33336,-1.18398 0,-0.28904 -0.0106,-0.51112 -0.0328,-0.66712 L 110.56494,98.622652 122.10856,86.81906 c 0.55191,-0.577841 0.82708,-1.111593 0.82708,-1.600649 z"
       class="ColorScheme-Text"
       id="path1156" />
  </g>
</svg>
